# xmcd
#
# Track frame offsets:
#	150
#	30205
#	58450
#	89998
#	178986
#
# Disc length: 2895 seconds
#
# Revision: 0
# Processed by: cddbd v1.5PL3 Copyright (c) Steve Scherf et al.
# Submitted via: audiograbber 1.82.02
#
DISCID=460b4d05
DTITLE=Derek and The Dominos - Live at Fillmore '70, CD 2/2
DYEAR=1970
DGENRE=Blues
TTITLE0=Roll it over
TTITLE1=Presence of the lord
TTITLE2=Little wing
TTITLE3=Let it rain
TTITLE4=Crossroads
EXTD=Bootleg
EXTT0=
EXTT1=
EXTT2=
EXTT3=
EXTT4=
PLAYORDER=
